<svg id="svg" version="1.1" xmlns="http://www.w3.org/2000/svg" xmlns:xlink="http://www.w3.org/1999/xlink" viewBox="0, 0, 400,395.8333333333333"><g id="svgg"><path id="path0" d="M10.227 10.227 L 0.000 20.455 -0.000 199.811 C -0.000 373.611,0.258 379.425,8.333 387.500 C 16.414 395.580,22.222 395.833,199.698 395.833 L 382.728 395.833 391.364 384.855 C 399.792 374.140,400.000 369.630,400.000 197.165 L 400.000 20.455 389.773 10.227 L 379.545 0.000 200.000 0.000 L 20.455 0.000 10.227 10.227 M368.750 200.000 L 368.750 368.750 200.000 368.750 L 31.250 368.750 30.162 198.912 L 29.073 29.073 198.912 30.162 L 368.750 31.250 368.750 200.000 M240.034 64.675 C 157.267 87.400,83.036 163.570,62.208 247.146 C 58.959 260.179,58.631 268.631,61.271 271.271 C 70.111 280.111,318.373 329.144,324.341 323.228 C 329.766 317.851,286.787 95.144,275.030 67.708 C 270.482 57.096,268.321 56.908,240.034 64.675 M256.001 98.408 C 259.372 111.840,262.007 109.503,221.315 129.181 C 176.626 150.792,150.729 176.757,128.956 221.781 C 119.788 240.739,110.460 256.063,108.227 255.833 C 105.994 255.604,100.290 255.135,95.553 254.792 C 85.292 254.047,86.427 248.491,104.829 209.391 C 126.424 163.505,174.849 118.214,224.271 97.678 C 253.846 85.389,252.727 85.363,256.001 98.408 M281.584 218.754 C 292.099 266.427,296.868 295.867,294.084 295.922 C 284.272 296.115,147.667 265.142,144.004 261.894 C 129.563 249.088,186.638 175.830,227.464 154.768 C 265.300 135.249,262.414 131.837,281.584 218.754 M225.677 178.660 C 216.113 184.722,221.451 202.083,232.879 202.083 C 246.071 202.083,253.538 190.534,246.123 181.599 C 240.023 174.249,234.002 173.383,225.677 178.660 M181.548 219.048 C 173.777 226.819,172.989 242.155,180.000 249.167 C 186.445 255.612,205.221 255.612,211.667 249.167 C 223.450 237.383,212.705 212.500,195.833 212.500 C 191.577 212.500,185.149 215.446,181.548 219.048 M243.049 248.240 C 238.684 259.617,252.607 270.012,260.986 261.633 C 269.505 253.114,265.595 241.667,254.167 241.667 C 249.439 241.667,244.437 244.625,243.049 248.240 " stroke="none" fill="#eee" fill-rule="evenodd"></path></g></svg>