<svg id="svg" version="1.1" xmlns="http://www.w3.org/2000/svg" xmlns:xlink="http://www.w3.org/1999/xlink" viewBox="0, 0, 400,400"><g id="svgg"><path id="path0" d="M38.798 3.568 C 26.582 8.888,12.797 22.377,6.128 35.539 L 0.000 47.631 0.000 199.997 C 0.000 368.112,-0.672 360.699,16.268 379.449 C 35.753 401.017,26.616 400.000,200.894 400.000 C 374.086 400.000,363.358 401.138,382.742 380.716 C 401.020 361.459,400.000 372.137,400.000 200.025 C 400.000 25.812,401.162 36.838,380.716 17.104 C 362.287 -0.684,369.457 -0.011,199.452 0.098 C 77.336 0.177,44.982 0.876,38.798 3.568 M345.205 22.752 C 379.497 32.276,379.764 33.644,379.764 200.000 C 379.764 399.687,399.782 380.364,193.985 379.326 L 53.259 378.616 42.577 371.069 C 20.675 355.595,21.491 361.662,20.585 207.547 C 19.680 53.672,19.953 50.488,35.355 35.085 C 40.709 29.731,48.812 24.278,53.362 22.965 C 64.998 19.610,333.184 19.414,345.205 22.752 M111.446 52.337 C 89.581 60.136,70.440 75.584,70.440 85.432 C 70.440 87.527,85.301 104.132,103.464 122.332 C 135.924 154.859,139.663 161.006,126.990 161.006 C 72.220 161.006,28.869 240.570,54.343 294.340 C 74.422 336.723,79.629 336.822,120.755 295.597 C 155.386 260.883,157.315 259.811,159.704 273.948 C 171.481 343.659,258.666 376.269,314.672 331.912 C 332.753 317.591,332.075 315.800,294.170 277.818 C 275.719 259.328,261.244 243.577,262.006 242.816 C 262.767 242.055,270.070 239.693,278.236 237.567 C 347.866 219.435,374.515 135.884,328.218 80.862 C 316.467 66.897,312.101 68.949,275.472 105.660 C 238.271 142.944,240.093 141.884,237.936 127.501 C 229.612 71.994,164.617 33.371,111.446 52.337 M162.954 76.794 C 198.272 87.282,220.796 125.986,211.531 160.264 C 207.139 176.516,203.003 179.485,193.022 173.550 C 178.909 165.158,104.756 89.004,106.436 84.627 C 110.111 75.050,142.136 70.612,162.954 76.794 M319.565 116.352 C 344.268 170.775,284.878 233.076,230.108 210.191 C 214.605 203.714,216.561 200.603,270.129 146.541 C 315.916 100.330,313.079 102.063,319.565 116.352 M167.376 189.809 C 182.879 196.286,180.923 199.397,127.356 253.459 C 81.569 299.670,84.406 297.937,77.920 283.648 C 53.381 229.587,112.972 167.077,167.376 189.809 M255.077 273.783 C 296.963 315.919,297.401 317.004,275.151 323.472 C 222.968 338.642,172.122 290.909,185.953 239.736 C 192.879 214.109,198.520 216.888,255.077 273.783 " stroke="none" fill="#eee" fill-rule="evenodd"></path></g></svg>