<svg id="svg" version="1.1" xmlns="http://www.w3.org/2000/svg" xmlns:xlink="http://www.w3.org/1999/xlink" viewBox="0, 0, 400,400"><g id="svgg"><path id="path0" d="M47.423 4.864 C 2.624 20.843,-0.016 31.779,0.091 200.898 C 0.192 361.418,1.211 367.920,29.416 388.037 L 43.299 397.938 200.729 397.938 C 416.794 397.938,397.487 416.649,399.115 205.679 C 400.441 33.832,400.552 34.527,368.132 12.300 L 353.197 2.062 206.496 1.256 C 110.709 0.731,55.500 1.983,47.423 4.864 M89.928 44.330 C 90.625 53.969,90.069 61.856,88.692 61.856 C 83.713 61.856,61.854 49.200,61.799 46.286 C 61.768 44.643,60.591 38.997,59.183 33.739 C 56.789 24.800,57.665 24.264,72.641 25.491 C 88.299 26.775,88.688 27.199,89.928 44.330 M136.959 61.918 L 138.144 99.095 170.063 80.398 C 199.752 63.007,202.307 60.410,206.635 43.222 C 212.290 20.763,236.036 13.611,231.826 35.634 L 229.744 46.527 242.247 39.141 C 266.324 24.918,278.343 42.152,254.761 57.083 L 241.480 65.492 252.699 69.757 C 282.145 80.953,262.965 94.754,229.627 86.359 C 213.496 82.297,148.954 108.982,148.543 119.883 C 148.199 128.984,211.571 157.539,225.874 154.729 C 255.067 148.993,261.758 149.827,263.118 159.373 C 264.054 165.937,261.385 169.267,252.809 172.234 L 241.237 176.238 252.350 181.461 C 281.392 195.110,267.488 212.360,237.527 199.852 C 230.715 197.009,230.038 197.953,232.333 207.098 C 234.075 214.039,232.883 219.347,228.826 222.713 C 219.809 230.197,212.907 222.607,206.697 198.380 C 201.622 178.575,200.269 177.183,168.758 159.330 L 136.082 140.818 136.082 180.940 L 136.082 221.063 150.515 235.052 C 171.010 254.915,164.966 276.407,144.176 257.593 C 136.303 250.467,136.082 250.608,136.082 262.773 C 136.082 276.778,127.039 286.695,117.578 283.065 C 113.571 281.527,111.340 275.235,111.340 265.470 C 111.340 251.004,110.975 250.598,103.799 257.093 C 81.000 277.726,73.346 256.791,95.072 233.222 L 111.660 215.225 110.469 178.169 L 109.278 141.113 77.329 159.581 C 46.486 177.410,45.155 178.819,38.914 200.289 C 29.075 234.135,24.742 231.600,24.742 191.996 C 24.742 161.149,25.652 156.695,31.959 156.654 C 35.928 156.629,52.922 148.429,69.723 138.433 L 100.270 120.258 86.218 111.574 C 78.489 106.798,61.588 97.833,48.661 91.651 C 23.737 79.734,18.607 68.654,29.011 49.213 C 34.421 39.104,41.237 38.899,41.237 48.845 C 41.237 58.517,96.328 98.969,109.499 98.969 C 110.512 98.969,111.340 82.268,111.340 61.856 L 111.340 24.742 123.557 24.742 L 135.773 24.742 136.959 61.918 M188.070 31.265 C 186.693 34.853,185.567 40.020,185.567 42.747 C 185.567 47.191,165.300 61.856,159.158 61.856 C 155.779 61.856,156.042 30.899,159.450 27.491 C 165.705 21.236,190.656 24.526,188.070 31.265 M361.237 38.763 L 375.258 52.784 375.258 200.732 C 375.258 397.872,393.397 379.381,200.000 379.381 C 19.868 379.381,24.742 381.646,24.742 297.949 C 24.742 248.864,25.049 247.102,34.190 243.626 C 47.420 238.596,52.277 231.618,57.792 209.719 C 62.357 191.587,64.343 189.484,87.629 178.139 C 97.605 173.278,89.798 209.651,78.552 220.425 C 54.793 243.188,55.837 276.675,80.499 282.865 C 86.503 284.371,95.814 290.003,101.190 295.379 C 114.184 308.373,132.346 308.181,144.928 294.917 C 150.269 289.286,157.303 284.647,160.559 284.607 C 186.412 284.296,193.110 246.898,171.134 225.555 C 159.111 213.879,156.701 208.617,156.701 194.049 L 156.701 176.560 169.965 184.307 C 179.651 189.964,184.643 197.020,188.469 210.460 C 198.134 244.414,220.670 255.521,242.547 237.113 C 249.285 231.443,258.572 226.804,263.183 226.804 C 276.482 226.804,289.862 206.732,286.504 191.818 C 284.965 184.978,283.957 171.880,284.266 162.711 C 285.207 134.760,270.788 124.766,238.993 131.333 C 215.288 136.229,189.691 130.066,189.691 119.462 C 189.691 112.485,218.963 103.451,229.093 107.303 C 262.106 119.854,284.844 106.743,284.981 75.077 C 285.027 64.403,285.131 48.711,285.213 40.206 L 285.360 24.742 316.288 24.742 C 345.963 24.742,347.785 25.310,361.237 38.763 M44.925 111.657 L 58.923 120.190 45.856 128.136 C 27.423 139.346,24.742 138.261,24.742 119.588 C 24.742 100.598,25.984 100.110,44.925 111.657 M275.826 258.763 C 252.328 298.382,248.505 319.251,261.196 338.620 C 288.010 379.544,352.017 360.367,351.825 311.467 C 351.750 292.487,313.436 222.680,303.093 222.680 C 299.866 222.680,287.596 238.918,275.826 258.763 M317.132 282.412 C 332.034 308.817,332.964 318.583,321.649 329.897 C 306.099 345.447,276.289 334.566,276.289 313.340 C 276.289 306.190,299.514 259.794,303.093 259.794 C 303.794 259.794,310.112 269.972,317.132 282.412 " stroke="none" fill="#eee" fill-rule="evenodd"></path></g></svg>