<svg id="svg" version="1.1" xmlns="http://www.w3.org/2000/svg" xmlns:xlink="http://www.w3.org/1999/xlink" viewBox="0, 0, 400,400"><g id="svgg"><path id="path0" d="M33.889 6.858 C 1.772 22.688,2.203 20.218,0.893 196.093 L -0.276 353.010 9.174 367.227 C 30.538 399.369,36.700 400.374,204.432 399.083 L 353.194 397.938 369.767 386.966 C 399.890 367.023,400.000 366.334,400.000 196.894 C 400.000 -16.080,416.268 -0.039,200.421 0.094 C 67.936 0.175,45.608 1.082,33.889 6.858 M156.701 32.485 C 156.701 46.250,164.701 54.734,172.902 49.666 C 176.694 47.323,177.687 42.042,175.960 33.407 L 173.402 20.619 256.804 20.679 C 360.355 20.755,373.174 26.137,378.309 71.694 C 380.921 94.863,379.375 95.047,355.879 74.364 C 270.242 -1.016,128.782 58.063,120.585 172.634 C 117.798 211.590,126.746 239.290,154.706 278.261 C 184.231 319.412,188.660 328.394,192.056 353.994 L 194.877 375.258 126.100 375.258 C 13.974 375.258,19.923 385.564,21.498 194.053 L 22.680 50.139 32.990 39.052 C 48.093 22.809,54.888 21.168,108.247 20.880 L 156.701 20.619 156.701 32.485 M79.650 56.170 C 76.660 63.961,104.894 90.318,116.495 90.567 C 128.612 90.827,124.753 75.996,109.135 62.283 C 92.939 48.062,83.511 46.108,79.650 56.170 M314.170 74.950 C 358.545 94.040,379.381 129.946,379.381 187.324 L 379.381 226.459 350.929 268.307 C 335.280 291.323,320.193 318.308,317.403 328.273 C 313.151 343.461,310.672 346.392,302.082 346.392 C 285.653 346.392,292.723 302.983,315.513 263.918 C 335.333 229.946,316.002 209.592,263.918 209.592 C 208.249 209.592,189.955 233.868,216.624 272.351 C 226.912 287.197,237.849 334.405,232.868 342.465 C 226.474 352.810,216.061 345.525,209.058 325.808 C 205.037 314.486,193.454 293.610,183.317 279.416 C 152.364 236.073,144.403 216.423,144.461 183.505 C 144.615 95.055,231.586 39.424,314.170 74.950 M72.777 126.536 C 62.196 137.117,85.361 154.802,98.868 146.454 C 103.781 143.418,104.512 133.242,100.000 130.710 C 92.968 126.766,75.263 124.050,72.777 126.536 M68.041 193.312 C 46.424 197.934,51.083 212.584,73.834 211.527 C 94.013 210.589,101.311 205.865,97.584 196.153 C 95.005 189.432,88.922 188.847,68.041 193.312 M243.401 259.857 C 246.570 261.815,252.298 261.598,256.479 259.361 C 261.339 256.760,266.678 256.857,271.879 259.641 C 283.104 265.648,292.784 254.848,292.784 236.314 C 292.784 223.765,293.668 222.405,298.969 226.804 C 305.922 232.574,307.391 257.925,301.002 261.874 C 292.166 267.334,283.632 290.936,281.048 317.054 L 278.351 344.330 263.918 344.330 L 249.485 344.330 247.041 321.618 C 244.044 293.749,236.608 270.343,228.655 263.742 C 221.324 257.659,220.801 234.468,227.835 227.392 C 231.965 223.238,233.464 225.603,235.375 239.289 C 236.687 248.684,240.299 257.940,243.401 259.857 M378.621 310.309 C 376.382 352.735,362.278 375.258,337.950 375.258 C 325.380 375.258,338.498 327.215,359.470 296.444 C 378.171 269.005,380.703 270.838,378.621 310.309 " stroke="none" fill="#eee" fill-rule="evenodd"></path></g></svg>