<svg id="svg" version="1.1" xmlns="http://www.w3.org/2000/svg" xmlns:xlink="http://www.w3.org/1999/xlink" viewBox="0, 0, 400,400"><g id="svgg"><path id="path0" d="M8.611 9.166 C -4.389 23.004,-5.031 379.127,7.921 392.079 C 20.306 404.465,379.694 404.465,392.079 392.079 C 399.772 384.386,400.000 378.878,400.000 200.690 L 400.000 17.222 390.834 8.611 C 381.697 0.027,381.087 0.000,199.445 0.000 L 17.222 0.000 8.611 9.166 M375.289 23.092 C 379.208 25.580,380.060 64.084,379.250 202.240 L 378.218 378.218 200.000 378.218 L 21.782 378.218 20.750 202.240 C 19.940 64.084,20.792 25.580,24.711 23.092 C 31.232 18.952,368.768 18.952,375.289 23.092 M67.327 68.452 C 67.327 79.619,105.834 118.812,116.806 118.812 C 121.012 118.812,132.094 111.312,141.434 102.146 L 158.416 85.480 175.397 102.146 C 196.460 122.817,199.580 122.817,220.642 102.146 L 237.624 85.480 254.605 102.146 C 263.945 111.312,275.145 118.812,279.493 118.812 C 290.323 118.812,328.713 79.330,328.713 68.192 C 328.713 54.070,313.338 57.299,295.031 75.266 L 278.871 91.126 263.384 75.266 C 243.796 55.206,236.111 55.359,214.811 76.238 L 197.639 93.069 183.640 76.238 C 165.165 54.025,153.611 53.805,132.655 75.266 L 117.169 91.126 101.009 75.266 C 82.541 57.141,67.327 54.063,67.327 68.452 " stroke="none" fill="#eee" fill-rule="evenodd"></path></g></svg>