<svg id="svg" version="1.1" xmlns="http://www.w3.org/2000/svg" xmlns:xlink="http://www.w3.org/1999/xlink" viewBox="0, 0, 400,400"><g id="svgg"><path id="path0" d="M8.611 9.166 C -4.389 23.004,-5.031 379.127,7.921 392.079 C 20.306 404.465,379.694 404.465,392.079 392.079 C 399.772 384.386,400.000 378.878,400.000 200.690 L 400.000 17.222 390.834 8.611 C 381.697 0.027,381.087 0.000,199.445 0.000 L 17.222 0.000 8.611 9.166 M375.289 23.092 C 379.208 25.580,380.060 64.084,379.250 202.240 L 378.218 378.218 200.000 378.218 L 21.782 378.218 20.750 202.240 C 19.940 64.084,20.792 25.580,24.711 23.092 C 31.232 18.952,368.768 18.952,375.289 23.092 M51.485 73.267 L 51.485 83.168 200.000 83.168 L 348.515 83.168 348.515 73.267 L 348.515 63.366 200.000 63.366 L 51.485 63.366 51.485 73.267 M51.485 326.733 L 51.485 336.634 200.000 336.634 L 348.515 336.634 348.515 326.733 L 348.515 316.832 200.000 316.832 L 51.485 316.832 51.485 326.733 " stroke="none" fill="#eee" fill-rule="evenodd"></path></g></svg>