<svg id="svg" version="1.1" xmlns="http://www.w3.org/2000/svg" xmlns:xlink="http://www.w3.org/1999/xlink" viewBox="0, 0, 400,432.83582089552243"><g id="svgg"><path id="path0" d="M62.307 5.026 C 43.713 16.566,38.553 46.501,52.096 64.257 L 59.416 73.854 46.075 75.683 C 30.231 77.855,15.961 84.718,6.716 94.612 C -1.218 103.103,-4.034 245.519,3.582 253.134 C 8.209 257.761,24.627 257.761,29.254 253.134 C 32.040 250.348,32.836 268.169,32.836 333.329 C 32.836 413.563,33.097 417.438,39.023 424.971 C 46.737 434.778,71.108 436.355,79.851 427.612 C 84.826 422.637,85.323 422.637,90.299 427.612 C 98.108 435.422,122.695 434.771,130.134 426.557 C 135.391 420.754,135.887 414.010,136.698 337.387 L 137.576 254.494 150.139 255.910 C 173.053 258.493,174.467 254.502,175.553 184.177 C 176.879 98.190,163.903 74.627,115.222 74.627 C 106.403 74.627,106.318 74.498,112.357 70.268 C 151.407 42.917,102.976 -20.214,62.307 5.026 M231.045 162.388 L 220.896 172.537 220.896 292.537 L 220.896 412.537 231.045 422.687 L 241.194 432.836 320.597 432.836 L 400.000 432.836 400.000 421.060 L 400.000 409.284 336.031 408.373 C 244.753 407.074,248.187 411.094,247.930 305.224 L 247.761 235.821 323.881 235.821 L 400.000 235.821 400.000 223.881 L 400.000 211.940 324.160 211.940 L 248.320 211.940 249.987 205.224 C 256.280 179.873,268.100 176.158,342.537 176.136 L 400.000 176.119 400.000 164.179 L 400.000 152.239 320.597 152.239 L 241.194 152.239 231.045 162.388 " stroke="none" fill="#eee" fill-rule="evenodd"></path></g></svg>