<svg id="svg" version="1.1" xmlns="http://www.w3.org/2000/svg" xmlns:xlink="http://www.w3.org/1999/xlink" viewBox="0, 0, 400,432.83582089552243"><g id="svgg"><path id="path0" d="M0.000 164.179 L 0.000 176.119 45.522 176.136 C 107.180 176.159,120.072 180.811,126.132 205.224 L 127.799 211.940 63.900 211.940 L 0.000 211.940 0.000 223.881 L 0.000 235.821 64.179 235.821 L 128.358 235.821 128.190 305.224 C 127.938 409.064,129.458 407.005,52.031 408.401 L 0.000 409.340 0.000 421.088 L 0.000 432.836 67.463 432.836 L 134.925 432.836 145.075 422.687 C 150.657 417.104,155.224 410.388,155.224 407.761 C 155.224 403.461,167.413 402.985,277.612 402.985 L 400.000 402.985 400.000 385.075 L 400.000 367.164 277.612 367.164 L 155.224 367.164 155.224 269.851 L 155.224 172.537 145.075 162.388 L 134.925 152.239 67.463 152.239 L 0.000 152.239 0.000 164.179 M194.247 166.074 C 183.267 180.032,187.624 186.010,211.566 189.839 C 226.473 192.222,226.456 190.071,211.764 215.228 C 198.739 237.530,198.165 247.615,209.903 247.944 C 213.486 248.044,223.382 250.395,231.893 253.167 L 247.368 258.209 237.117 275.506 C 223.745 298.069,224.065 301.580,240.299 310.448 C 255.541 318.775,255.983 320.151,247.750 333.654 C 239.832 346.640,240.237 351.796,249.448 355.298 C 263.512 360.645,266.828 358.746,278.130 338.865 C 295.169 308.891,295.194 309.421,276.231 298.571 C 256.656 287.372,257.251 290.426,270.149 267.362 C 285.293 240.283,284.685 238.187,259.701 231.343 C 248.209 228.195,238.806 225.127,238.806 224.524 C 238.806 223.922,244.179 214.230,250.746 202.985 C 265.512 177.703,265.509 177.611,250.000 172.128 C 205.568 156.421,202.133 156.048,194.247 166.074 " stroke="none" fill="#eee" fill-rule="evenodd"></path></g></svg>