<svg id="svg" version="1.1" xmlns="http://www.w3.org/2000/svg" xmlns:xlink="http://www.w3.org/1999/xlink" viewBox="0, 0, 400,386.04651162790697"><g id="svgg"><path id="path0" d="M12.262 12.262 L 0.000 24.524 -0.000 189.069 C -0.000 357.885,0.715 365.225,18.605 379.992 C 28.670 388.300,371.330 388.300,381.395 379.992 C 399.285 365.225,400.000 357.885,400.000 189.069 L 400.000 24.524 387.738 12.262 L 375.476 0.000 200.000 0.000 L 24.524 0.000 12.262 12.262 M357.694 36.004 C 365.614 44.295,372.093 55.112,372.093 60.042 C 372.093 64.973,373.363 72.317,374.916 76.364 C 377.460 82.993,360.164 83.721,200.000 83.721 C 39.836 83.721,22.540 82.993,25.084 76.364 C 26.637 72.317,27.907 64.973,27.907 60.042 C 27.907 49.273,49.791 25.341,62.791 21.894 C 67.907 20.538,133.114 19.766,207.694 20.179 L 343.296 20.930 357.694 36.004 M375.891 215.116 C 373.747 372.568,386.062 362.266,200.000 362.266 C 13.938 362.266,26.253 372.568,24.109 215.116 L 22.637 106.977 200.000 106.977 L 377.363 106.977 375.891 215.116 M184.053 123.588 C 178.080 129.561,176.744 143.238,176.744 198.436 C 176.744 258.932,175.774 267.208,167.442 277.801 C 143.883 307.751,162.295 349.529,199.482 350.504 C 236.817 351.483,256.494 308.230,232.558 277.801 C 224.226 267.208,223.256 258.932,223.256 198.436 C 223.256 126.930,220.241 116.279,200.000 116.279 C 195.249 116.279,188.073 119.568,184.053 123.588 M212.415 153.488 C 212.848 165.000,212.172 170.756,210.912 166.279 C 209.651 161.802,204.648 158.140,199.794 158.140 C 191.643 158.140,190.857 162.856,189.523 219.767 L 188.078 281.395 187.062 213.171 C 185.932 137.231,187.388 129.100,201.755 131.149 C 210.004 132.326,211.757 136.001,212.415 153.488 M227.907 158.140 C 227.907 160.698,234.186 162.791,241.860 162.791 C 249.535 162.791,255.814 160.698,255.814 158.140 C 255.814 155.581,249.535 153.488,241.860 153.488 C 234.186 153.488,227.907 155.581,227.907 158.140 M227.907 176.744 C 227.907 179.302,232.093 181.395,237.209 181.395 C 242.326 181.395,246.512 179.302,246.512 176.744 C 246.512 174.186,242.326 172.093,237.209 172.093 C 232.093 172.093,227.907 174.186,227.907 176.744 M227.907 195.349 C 227.907 197.907,234.186 200.000,241.860 200.000 C 249.535 200.000,255.814 197.907,255.814 195.349 C 255.814 192.791,249.535 190.698,241.860 190.698 C 234.186 190.698,227.907 192.791,227.907 195.349 M227.907 213.953 C 227.907 216.512,232.093 218.605,237.209 218.605 C 242.326 218.605,246.512 216.512,246.512 213.953 C 246.512 211.395,242.326 209.302,237.209 209.302 C 232.093 209.302,227.907 211.395,227.907 213.953 M229.070 233.721 C 230.136 236.919,235.891 239.535,241.860 239.535 C 247.829 239.535,253.585 236.919,254.651 233.721 C 255.930 229.886,251.576 227.907,241.860 227.907 C 232.145 227.907,227.791 229.886,229.070 233.721 " stroke="none" fill="#eee" fill-rule="evenodd"></path></g></svg>