<svg id="svg" version="1.1" xmlns="http://www.w3.org/2000/svg" xmlns:xlink="http://www.w3.org/1999/xlink" viewBox="0, 0, 400,351.6666666666667"><g id="svgg"><path id="path0" d="M7.959 2.598 C -8.100 11.313,-2.475 24.207,34.813 64.167 C 37.379 66.917,48.147 79.350,58.742 91.796 C 115.881 158.916,120.942 164.238,129.025 165.679 C 131.697 166.156,136.384 168.970,139.442 171.933 C 144.666 176.997,146.573 180.419,143.750 179.667 C 143.063 179.483,138.375 181.448,133.333 184.032 C 76.794 213.017,49.919 272.702,70.850 322.797 L 73.163 328.333 202.195 328.333 L 331.227 328.333 334.334 317.917 C 341.147 295.074,337.988 263.628,326.341 238.362 C 321.560 227.991,321.257 227.688,319.632 231.667 C 298.179 284.210,244.150 306.338,220.890 272.108 C 214.654 262.931,215.735 262.050,223.946 269.619 C 252.759 296.178,305.646 269.978,319.204 222.429 C 328.114 191.177,354.310 165.780,382.722 160.846 C 403.133 157.302,407.723 140.059,389.511 135.340 C 386.129 134.463,383.994 132.773,383.688 130.728 C 382.375 121.975,381.222 119.855,376.419 117.372 C 371.530 114.844,370.960 114.877,366.873 117.928 C 362.847 120.934,361.620 123.718,359.288 135.139 C 354.024 160.923,289.364 187.608,257.651 177.083 C 233.214 168.973,201.232 166.351,177.500 170.511 C 171.083 171.635,164.606 172.317,163.105 172.025 C 159.259 171.278,146.398 155.587,146.755 152.078 C 147.606 143.694,143.584 137.232,125.232 117.500 C 122.674 114.750,111.263 101.625,99.874 88.333 C 88.485 75.042,78.417 63.345,77.500 62.341 C 76.583 61.336,64.622 47.574,50.920 31.757 C 22.576 -0.959,18.994 -3.391,7.959 2.598 M29.924 29.583 C 32.822 33.021,37.279 38.083,39.830 40.833 C 42.380 43.583,58.017 61.583,74.578 80.833 C 91.139 100.083,111.868 124.083,120.643 134.167 C 138.092 154.219,138.960 155.769,131.878 154.213 C 128.267 153.420,126.823 153.856,126.005 155.986 C 125.409 157.539,124.444 158.333,123.860 157.749 C 123.276 157.165,124.007 155.351,125.485 153.718 C 129.573 149.201,121.219 138.381,116.759 142.416 C 115.184 143.841,113.406 144.517,112.807 143.918 C 112.208 143.320,112.978 141.909,114.517 140.784 C 117.131 138.872,117.123 138.444,114.394 134.279 C 111.057 129.186,106.346 126.794,105.378 129.700 C 105.017 130.782,103.918 131.667,102.936 131.667 C 101.954 131.667,102.355 130.335,103.827 128.708 C 108.135 123.949,99.513 113.416,94.801 117.680 C 93.066 119.250,91.095 119.983,90.420 119.309 C 89.746 118.635,90.501 117.352,92.097 116.459 C 96.115 114.210,95.729 111.266,90.811 106.646 C 87.579 103.610,86.171 103.163,84.645 104.689 C 81.367 107.966,79.263 106.910,82.327 103.525 C 86.847 98.529,79.105 90.021,72.696 92.941 C 70.296 94.034,68.333 94.275,68.333 93.476 C 68.333 92.677,69.458 91.592,70.833 91.064 C 74.322 89.725,73.964 87.586,69.358 82.230 C 65.907 78.219,65.021 77.908,62.651 79.875 C 61.148 81.122,59.430 81.652,58.831 81.054 C 58.233 80.455,59.074 78.993,60.700 77.803 C 63.478 75.772,63.382 75.314,59.121 70.250 C 54.803 65.119,54.434 64.996,51.449 67.697 C 47.568 71.209,45.501 69.737,49.167 66.071 C 53.771 61.467,45.762 50.910,40.793 55.033 C 39.396 56.193,37.763 56.652,37.165 56.054 C 36.566 55.455,37.354 54.031,38.916 52.889 C 41.530 50.978,41.384 50.368,37.078 45.211 C 32.871 40.172,32.175 39.879,30.163 42.304 C 28.932 43.787,27.151 45.000,26.204 45.000 C 25.258 45.000,25.725 43.628,27.242 41.952 C 30.950 37.854,30.733 36.270,25.833 31.667 C 21.708 27.791,20.278 23.333,23.161 23.333 C 23.982 23.333,27.026 26.146,29.924 29.583 M54.212 344.092 L 62.500 351.517 196.667 351.558 L 330.833 351.598 339.167 344.196 L 347.500 336.795 196.712 336.731 L 45.925 336.667 54.212 344.092 " stroke="none" fill="#eee" fill-rule="evenodd"></path></g></svg>